<?xml version="1.0" standalone="no"?>
<!DOCTYPE svg PUBLIC "-//W3C//DTD SVG 20010904//EN"
 "http://www.w3.org/TR/2001/REC-SVG-20010904/DTD/svg10.dtd">
<svg version="1.0" xmlns="http://www.w3.org/2000/svg"
 width="512.000000pt" height="512.000000pt" viewBox="0 0 512.000000 512.000000"
 preserveAspectRatio="xMidYMid meet">

<g transform="translate(0.000000,512.000000) scale(0.100000,-0.100000)"
fill="#000000" stroke="none">
<path d="M2412 5100 c-137 -36 -262 -123 -336 -234 l-36 -54 -63 34 c-86 45
-164 64 -270 64 -108 0 -189 -20 -282 -68 -175 -91 -305 -299 -305 -486 l0
-56 -37 0 c-64 0 -175 -28 -241 -61 -138 -68 -254 -202 -303 -350 -19 -59 -24
-95 -24 -179 0 -184 53 -299 216 -465 l88 -90 -67 -35 c-100 -52 -200 -155
-250 -261 -64 -135 -67 -157 -67 -504 0 -305 0 -311 24 -363 31 -69 106 -136
176 -158 l54 -17 4 -616 c3 -684 1 -660 73 -807 65 -133 177 -245 312 -314 86
-43 131 -40 158 12 24 45 3 76 -86 123 -92 49 -193 147 -237 231 -64 120 -66
138 -71 587 l-4 407 561 0 561 0 0 -645 0 -645 -240 0 c-227 0 -241 -1 -260
-20 -28 -28 -26 -75 5 -105 l24 -25 1146 0 c1291 0 1231 -3 1390 75 161 79
259 178 336 340 67 141 69 162 69 818 l0 583 54 17 c71 23 146 90 177 159 24
52 24 58 24 363 0 347 -3 369 -67 504 -50 105 -150 209 -250 261 l-67 35 93
95 c144 149 202 264 213 424 21 316 -219 593 -538 622 l-69 7 0 61 c-1 128
-49 199 -118 175 -41 -14 -57 -54 -43 -105 16 -58 14 -164 -3 -164 -7 0 -47
-16 -87 -37 -66 -32 -102 -64 -336 -297 l-263 -260 -2 462 c-1 254 -2 479 -2
500 -1 36 0 38 79 77 78 39 81 40 190 40 107 0 112 -1 189 -37 43 -21 89 -38
102 -38 59 0 87 86 42 127 -66 61 -204 103 -335 103 -106 0 -184 -19 -272 -65
-36 -19 -65 -34 -66 -32 -111 167 -234 259 -393 292 -91 20 -182 18 -270 -5z
m253 -145 c162 -43 289 -177 324 -343 7 -35 11 -227 11 -563 l0 -511 34 -34
c28 -28 41 -34 77 -34 42 0 43 1 343 298 331 329 361 351 500 375 284 48 545
-214 498 -500 -19 -112 -58 -177 -193 -317 l-121 -126 -1578 0 -1578 0 -121
126 c-135 140 -174 205 -193 317 -47 286 215 548 498 500 139 -24 169 -46 500
-375 300 -297 301 -298 343 -298 36 0 49 6 77 34 l34 34 0 519 c0 434 3 528
15 578 62 237 298 380 530 320z m-768 -240 c74 -38 78 -42 77 -72 0 -18 -1
-243 -2 -500 l-2 -467 -262 260 c-235 233 -271 265 -337 297 -40 21 -80 37
-89 37 -12 0 -14 14 -10 83 9 178 125 326 303 390 38 13 73 17 147 14 90 -2
102 -5 175 -42z m2368 -1714 c87 -42 180 -134 217 -211 45 -97 50 -143 46
-452 l-3 -286 -25 -27 c-53 -58 68 -55 -1940 -55 -2008 0 -1887 -3 -1940 55
l-25 27 -3 286 c-2 197 0 304 9 342 34 158 146 284 300 340 53 19 95 19 1674
17 l1620 -2 70 -34z m-1265 -2016 l0 -835 -440 0 -440 0 0 835 0 835 440 0
440 0 0 -835z m1277 48 c-3 -271 -8 -423 -16 -453 -51 -194 -219 -361 -411
-411 -27 -7 -171 -13 -367 -16 l-323 -5 0 646 0 646 561 0 561 0 -5 -407z"/>
<path d="M1894 2831 c-85 -21 -152 -96 -162 -176 -6 -55 10 -89 47 -105 49
-20 92 8 108 70 6 21 19 41 35 49 23 13 29 13 52 -2 17 -11 26 -26 26 -43 0
-34 51 -84 85 -84 15 0 37 11 52 26 22 22 25 32 21 74 -13 129 -141 222 -264
191z"/>
<path d="M3122 2831 c-86 -22 -162 -117 -162 -203 0 -47 35 -88 75 -88 34 0
85 50 85 84 0 17 9 32 26 43 23 15 29 15 52 2 16 -8 29 -28 35 -49 5 -19 15
-42 24 -52 31 -35 89 -30 120 11 25 32 11 116 -29 173 -42 60 -150 97 -226 79z"/>
<path d="M2364 2517 c-39 -34 -37 -78 6 -122 52 -54 113 -79 190 -79 77 1 123
18 179 69 34 31 41 43 41 75 0 30 -6 43 -26 59 -36 29 -65 26 -108 -8 -64 -51
-114 -49 -178 4 -37 31 -69 32 -104 2z"/>
</g>
</svg>
